<svg xmlns="http://www.w3.org/2000/svg" viewBox="0 0 121.83 520.39"><defs><style>.cls-1{fill:#fbe827;}</style></defs><g id="Laag_2" data-name="Laag 2"><g id="Laag_1-2" data-name="Laag 1"><polygon class="cls-1" points="1.23 520.23 0.78 520.09 0.4 520.39 0.4 519.91 0 519.64 0.45 519.49 0.58 519.03 0.87 519.41 1.34 519.39 1.07 519.78 1.23 520.23"/><polygon class="cls-1" points="6.21 500.04 5.45 499.8 4.83 500.29 4.82 499.5 4.16 499.06 4.91 498.81 5.13 498.05 5.6 498.68 6.39 498.65 5.93 499.3 6.21 500.04"/><polygon class="cls-1" points="1.53 482.47 1.04 482.32 0.64 482.63 0.63 482.12 0.21 481.84 0.69 481.67 0.83 481.18 1.14 481.59 1.65 481.57 1.35 481.99 1.53 482.47"/><polygon class="cls-1" points="64.51 462.94 64.14 462.82 63.84 463.06 63.83 462.68 63.51 462.46 63.88 462.34 63.98 461.97 64.21 462.28 64.6 462.26 64.38 462.57 64.51 462.94"/><polygon class="cls-1" points="28.94 412.89 28.37 412.71 27.89 413.08 27.89 412.48 27.39 412.15 27.96 411.95 28.12 411.38 28.48 411.86 29.08 411.83 28.73 412.32 28.94 412.89"/><polygon class="cls-1" points="110.31 377.93 109.85 377.79 109.47 378.08 109.47 377.61 109.07 377.34 109.52 377.19 109.65 376.73 109.94 377.11 110.42 377.09 110.14 377.48 110.31 377.93"/><polygon class="cls-1" points="67.54 319.86 66.81 319.63 66.22 320.11 66.21 319.35 65.58 318.92 66.29 318.68 66.5 317.95 66.95 318.56 67.71 318.53 67.28 319.15 67.54 319.86"/><polygon class="cls-1" points="47.9 281.75 47.5 281.62 47.17 281.88 47.17 281.46 46.82 281.23 47.22 281.1 47.33 280.7 47.58 281.03 47.99 281.02 47.75 281.36 47.9 281.75"/><polygon class="cls-1" points="116.11 225.41 115.51 225.22 115.02 225.61 115.01 224.98 114.48 224.63 115.08 224.43 115.25 223.82 115.63 224.33 116.26 224.31 115.89 224.82 116.11 225.41"/><polygon class="cls-1" points="97.14 168.85 96.57 168.67 96.09 169.05 96.08 168.44 95.58 168.11 96.15 167.91 96.32 167.33 96.68 167.81 97.28 167.79 96.94 168.28 97.14 168.85"/><polygon class="cls-1" points="100.83 147.92 100.56 147.83 100.33 148.01 100.33 147.72 100.09 147.56 100.36 147.47 100.44 147.19 100.61 147.42 100.9 147.41 100.73 147.65 100.83 147.92"/><polygon class="cls-1" points="46.03 136.31 45.28 136.08 44.67 136.56 44.66 135.78 44.01 135.34 44.75 135.09 44.96 134.34 45.43 134.97 46.21 134.94 45.76 135.57 46.03 136.31"/><polygon class="cls-1" points="76.87 83.47 76.14 83.25 75.54 83.72 75.53 82.95 74.9 82.53 75.62 82.29 75.83 81.55 76.28 82.16 77.05 82.13 76.61 82.76 76.87 83.47"/><polygon class="cls-1" points="56.86 75.82 56.18 75.61 55.62 76.05 55.61 75.34 55.01 74.94 55.69 74.71 55.88 74.02 56.31 74.6 57.02 74.57 56.61 75.15 56.86 75.82"/><polygon class="cls-1" points="47.79 63.43 47.18 63.24 46.68 63.63 46.67 63 46.14 62.65 46.74 62.44 46.92 61.83 47.3 62.34 47.93 62.31 47.57 62.83 47.79 63.43"/><polygon class="cls-1" points="101.59 19.38 101.37 19.32 101.19 19.46 101.19 19.23 101 19.1 101.22 19.03 101.28 18.81 101.41 18.99 101.64 18.99 101.51 19.17 101.59 19.38"/><polygon class="cls-1" points="121.66 1.82 120.97 1.61 120.4 2.06 120.39 1.33 119.78 0.93 120.47 0.7 120.67 0 121.1 0.58 121.83 0.55 121.41 1.14 121.66 1.82"/></g></g></svg>