<svg xmlns="http://www.w3.org/2000/svg" viewBox="0 0 364.38 181.09"><defs><style>.cls-1{fill:#fbe827;}</style></defs><g id="Laag_2" data-name="Laag 2"><g id="Laag_1-2" data-name="Laag 1"><polygon class="cls-1" points="364.22 18.09 363.56 17.89 363.02 18.31 363.01 17.62 362.44 17.24 363.09 17.02 363.28 16.35 363.69 16.91 364.38 16.88 363.98 17.44 364.22 18.09"/><polygon class="cls-1" points="331.47 46.67 330.93 46.5 330.48 46.85 330.47 46.28 330 45.96 330.54 45.78 330.69 45.23 331.03 45.69 331.6 45.67 331.27 46.13 331.47 46.67"/><polygon class="cls-1" points="296.58 1.62 295.97 1.43 295.46 1.83 295.45 1.18 294.92 0.83 295.53 0.62 295.7 0 296.09 0.52 296.73 0.49 296.36 1.02 296.58 1.62"/><polygon class="cls-1" points="288.44 59.94 288.08 59.83 287.79 60.06 287.79 59.69 287.48 59.49 287.83 59.37 287.93 59.01 288.15 59.31 288.52 59.29 288.31 59.59 288.44 59.94"/><polygon class="cls-1" points="244.96 7.49 244.61 7.38 244.33 7.61 244.32 7.24 244.02 7.04 244.36 6.92 244.46 6.57 244.68 6.86 245.04 6.85 244.83 7.15 244.96 7.49"/><polygon class="cls-1" points="228.7 86.37 228.11 86.19 227.62 86.58 227.61 85.95 227.09 85.6 227.68 85.4 227.85 84.8 228.22 85.3 228.85 85.28 228.49 85.79 228.7 86.37"/><polygon class="cls-1" points="167.79 87.83 167.26 87.67 166.83 88.01 166.83 87.47 166.37 87.16 166.89 86.98 167.04 86.46 167.37 86.9 167.91 86.88 167.6 87.32 167.79 87.83"/><polygon class="cls-1" points="108.18 162.75 107.53 162.55 107 162.97 106.99 162.29 106.42 161.91 107.06 161.69 107.25 161.04 107.66 161.58 108.34 161.56 107.94 162.11 108.18 162.75"/><polygon class="cls-1" points="69.38 120.75 68.85 120.59 68.42 120.93 68.41 120.38 67.95 120.08 68.48 119.9 68.63 119.37 68.95 119.81 69.51 119.79 69.19 120.24 69.38 120.75"/><polygon class="cls-1" points="54.6 145.13 54.24 145.02 53.95 145.25 53.94 144.88 53.63 144.67 53.98 144.55 54.09 144.19 54.31 144.49 54.68 144.47 54.47 144.78 54.6 145.13"/><polygon class="cls-1" points="1.42 180.92 0.89 180.75 0.46 181.09 0.46 180.55 0 180.24 0.52 180.07 0.67 179.54 1 179.98 1.54 179.96 1.23 180.4 1.42 180.92"/></g></g></svg>