<svg xmlns="http://www.w3.org/2000/svg" viewBox="0 0 549.97 186.86"><defs><style>.cls-1{fill:#fbe827;}</style></defs><g id="Laag_2" data-name="Laag 2"><g id="Laag_1-2" data-name="Laag 1"><polygon class="cls-1" points="549.81 150.17 549.13 149.96 548.58 150.4 548.57 149.69 547.98 149.3 548.65 149.07 548.84 148.39 549.26 148.96 549.97 148.93 549.56 149.51 549.81 150.17"/><polygon class="cls-1" points="497.21 186.63 496.52 186.42 495.96 186.86 495.95 186.14 495.36 185.75 496.04 185.52 496.23 184.83 496.66 185.4 497.37 185.37 496.96 185.96 497.21 186.63"/><polygon class="cls-1" points="437.48 176.95 436.85 176.75 436.34 177.16 436.33 176.5 435.79 176.14 436.41 175.93 436.58 175.3 436.98 175.82 437.63 175.8 437.25 176.33 437.48 176.95"/><polygon class="cls-1" points="377.41 165.3 377.17 165.22 376.98 165.38 376.97 165.13 376.76 164.99 377 164.91 377.07 164.67 377.22 164.87 377.47 164.86 377.32 165.06 377.41 165.3"/><polygon class="cls-1" points="319.18 150.37 318.83 150.26 318.55 150.49 318.54 150.12 318.24 149.92 318.58 149.8 318.68 149.45 318.9 149.74 319.27 149.73 319.06 150.03 319.18 150.37"/><polygon class="cls-1" points="323.13 92.88 322.52 92.69 322.02 93.08 322.02 92.45 321.49 92.09 322.09 91.89 322.26 91.27 322.64 91.78 323.28 91.76 322.91 92.28 323.13 92.88"/><polygon class="cls-1" points="291.55 119.89 291.04 119.74 290.62 120.07 290.62 119.54 290.18 119.24 290.68 119.07 290.82 118.56 291.14 118.99 291.67 118.97 291.36 119.4 291.55 119.89"/><polygon class="cls-1" points="284.8 114.41 284.27 114.24 283.83 114.59 283.83 114.03 283.37 113.73 283.89 113.55 284.04 113.02 284.37 113.46 284.92 113.44 284.6 113.89 284.8 114.41"/><polygon class="cls-1" points="263.69 116.98 263.22 116.84 262.84 117.14 262.83 116.65 262.43 116.38 262.89 116.22 263.02 115.75 263.31 116.14 263.8 116.13 263.52 116.52 263.69 116.98"/><polygon class="cls-1" points="211.27 81.7 211.05 81.63 210.86 81.78 210.86 81.54 210.66 81.41 210.89 81.33 210.95 81.11 211.09 81.3 211.33 81.29 211.19 81.48 211.27 81.7"/><polygon class="cls-1" points="223.41 43.34 222.74 43.14 222.2 43.57 222.19 42.87 221.61 42.49 222.27 42.26 222.46 41.6 222.87 42.15 223.57 42.13 223.17 42.69 223.41 43.34"/><polygon class="cls-1" points="211.99 60.22 211.61 60.1 211.3 60.34 211.3 59.95 210.97 59.73 211.34 59.6 211.45 59.23 211.68 59.54 212.08 59.52 211.85 59.85 211.99 60.22"/><polygon class="cls-1" points="194.5 30.32 194.19 30.22 193.93 30.42 193.93 30.1 193.65 29.91 193.96 29.81 194.05 29.5 194.25 29.76 194.57 29.75 194.39 30.01 194.5 30.32"/><polygon class="cls-1" points="170.9 26.73 170.66 26.66 170.47 26.81 170.46 26.56 170.26 26.43 170.49 26.35 170.56 26.11 170.71 26.31 170.95 26.3 170.81 26.5 170.9 26.73"/><polygon class="cls-1" points="109.57 22.4 108.82 22.17 108.19 22.66 108.18 21.86 107.52 21.42 108.27 21.17 108.49 20.41 108.96 21.04 109.76 21.01 109.3 21.66 109.57 22.4"/><polygon class="cls-1" points="74.61 0.78 74.32 0.69 74.08 0.88 74.07 0.57 73.81 0.4 74.11 0.3 74.19 0 74.38 0.25 74.69 0.24 74.51 0.49 74.61 0.78"/><polygon class="cls-1" points="38.38 54.35 37.72 54.15 37.17 54.58 37.16 53.88 36.58 53.49 37.24 53.27 37.43 52.6 37.84 53.16 38.54 53.13 38.14 53.7 38.38 54.35"/><polygon class="cls-1" points="0.63 42.24 0.4 42.16 0.21 42.31 0.2 42.07 0 41.94 0.23 41.86 0.3 41.62 0.44 41.82 0.69 41.81 0.55 42.01 0.63 42.24"/></g></g></svg>