<svg xmlns="http://www.w3.org/2000/svg" viewBox="0 0 640.34 320.06"><defs><style>.cls-1{fill:#fbe827;}</style></defs><g id="Laag_2" data-name="Laag 2"><g id="Laag_1-2" data-name="Laag 1"><polygon class="cls-1" points="640.25 203.59 639.85 203.47 639.52 203.73 639.52 203.31 639.17 203.08 639.57 202.95 639.68 202.55 639.93 202.88 640.34 202.87 640.1 203.21 640.25 203.59"/><polygon class="cls-1" points="604.46 182.63 604.09 182.52 603.79 182.75 603.79 182.38 603.47 182.16 603.83 182.04 603.94 181.68 604.16 181.98 604.54 181.97 604.32 182.28 604.46 182.63"/><polygon class="cls-1" points="589.13 146.87 588.42 146.65 587.84 147.11 587.83 146.37 587.22 145.96 587.92 145.72 588.12 145 588.56 145.6 589.3 145.57 588.87 146.17 589.13 146.87"/><polygon class="cls-1" points="557.37 118.03 556.71 117.83 556.18 118.25 556.17 117.57 555.6 117.19 556.25 116.97 556.43 116.31 556.84 116.85 557.53 116.83 557.13 117.39 557.37 118.03"/><polygon class="cls-1" points="479.88 114.13 479.59 114.04 479.35 114.23 479.35 113.92 479.09 113.75 479.38 113.65 479.46 113.36 479.65 113.6 479.95 113.59 479.78 113.84 479.88 114.13"/><polygon class="cls-1" points="477.86 99.8 477.24 99.61 476.74 100 476.73 99.36 476.19 99 476.8 98.8 476.98 98.18 477.36 98.69 478 98.67 477.63 99.19 477.86 99.8"/><polygon class="cls-1" points="473.72 62.97 473.04 62.76 472.48 63.2 472.47 62.48 471.87 62.09 472.55 61.86 472.74 61.17 473.17 61.74 473.88 61.71 473.47 62.3 473.72 62.97"/><polygon class="cls-1" points="436.78 33.3 436.27 33.14 435.85 33.47 435.84 32.93 435.39 32.63 435.9 32.46 436.05 31.95 436.37 32.38 436.9 32.35 436.59 32.79 436.78 33.3"/><polygon class="cls-1" points="401.26 30.41 400.94 30.31 400.67 30.52 400.67 30.18 400.39 29.99 400.71 29.89 400.8 29.56 401 29.83 401.34 29.82 401.14 30.09 401.26 30.41"/><polygon class="cls-1" points="381.7 1.8 381.02 1.59 380.46 2.03 380.45 1.32 379.85 0.92 380.53 0.69 380.72 0 381.15 0.57 381.87 0.55 381.45 1.13 381.7 1.8"/><polygon class="cls-1" points="352.03 22.04 351.7 21.93 351.42 22.15 351.41 21.8 351.12 21.6 351.45 21.49 351.55 21.15 351.76 21.43 352.12 21.41 351.91 21.7 352.03 22.04"/><polygon class="cls-1" points="300.99 36.79 300.37 36.6 299.87 37 299.86 36.36 299.32 36 299.93 35.79 300.11 35.17 300.49 35.69 301.13 35.66 300.76 36.19 300.99 36.79"/><polygon class="cls-1" points="277.5 83.19 277.26 83.12 277.06 83.28 277.05 83.02 276.84 82.88 277.08 82.8 277.15 82.55 277.31 82.76 277.56 82.75 277.41 82.95 277.5 83.19"/><polygon class="cls-1" points="257.64 86.4 257.28 86.28 256.98 86.52 256.98 86.14 256.67 85.93 257.02 85.81 257.12 85.45 257.35 85.75 257.73 85.74 257.51 86.04 257.64 86.4"/><polygon class="cls-1" points="193.18 98.19 192.76 98.06 192.41 98.33 192.41 97.89 192.04 97.65 192.46 97.51 192.58 97.09 192.84 97.44 193.28 97.42 193.02 97.78 193.18 98.19"/><polygon class="cls-1" points="171.6 156.64 171.32 156.55 171.09 156.73 171.09 156.44 170.84 156.28 171.12 156.18 171.2 155.9 171.38 156.13 171.67 156.12 171.5 156.36 171.6 156.64"/><polygon class="cls-1" points="199.69 186.05 199.43 185.97 199.22 186.14 199.22 185.87 198.99 185.72 199.25 185.63 199.32 185.37 199.48 185.59 199.75 185.57 199.6 185.8 199.69 186.05"/><polygon class="cls-1" points="134.67 150.43 134.23 150.29 133.87 150.58 133.87 150.12 133.48 149.86 133.92 149.71 134.04 149.27 134.32 149.64 134.78 149.62 134.51 150 134.67 150.43"/><polygon class="cls-1" points="145.22 202.22 144.94 202.13 144.7 202.32 144.69 202.01 144.44 201.85 144.73 201.75 144.81 201.46 144.99 201.7 145.29 201.69 145.12 201.94 145.22 202.22"/><polygon class="cls-1" points="100.11 212.82 99.73 212.7 99.43 212.94 99.42 212.55 99.1 212.34 99.47 212.21 99.57 211.84 99.81 212.15 100.19 212.13 99.97 212.45 100.11 212.82"/><polygon class="cls-1" points="74.13 246.24 73.91 246.17 73.73 246.31 73.72 246.08 73.53 245.95 73.75 245.88 73.81 245.65 73.95 245.84 74.18 245.83 74.05 246.02 74.13 246.24"/><polygon class="cls-1" points="19.66 270.82 19.21 270.68 18.84 270.98 18.83 270.5 18.44 270.24 18.89 270.09 19.02 269.64 19.3 270.02 19.77 270 19.5 270.38 19.66 270.82"/><polygon class="cls-1" points="49.95 319.93 49.57 319.81 49.26 320.06 49.25 319.66 48.92 319.44 49.3 319.31 49.41 318.92 49.65 319.24 50.05 319.23 49.82 319.55 49.95 319.93"/><polygon class="cls-1" points="1.24 291.82 0.78 291.68 0.41 291.98 0.4 291.5 0 291.23 0.46 291.07 0.59 290.61 0.87 291 1.35 290.98 1.08 291.37 1.24 291.82"/></g></g></svg>