<svg xmlns="http://www.w3.org/2000/svg" viewBox="0 0 309.01 353.99"><defs><style>.cls-1{fill:#fbe827;}</style></defs><g id="Laag_2" data-name="Laag 2"><g id="Laag_1-2" data-name="Laag 1"><polygon class="cls-1" points="308.89 353.83 308.4 353.67 307.99 353.99 307.99 353.48 307.56 353.19 308.05 353.03 308.19 352.53 308.49 352.94 309.01 352.92 308.71 353.34 308.89 353.83"/><polygon class="cls-1" points="301.67 319.62 301 319.42 300.46 319.84 300.45 319.15 299.88 318.77 300.53 318.55 300.72 317.88 301.13 318.43 301.82 318.41 301.43 318.97 301.67 319.62"/><polygon class="cls-1" points="256.44 293.94 255.88 293.77 255.43 294.13 255.42 293.55 254.94 293.23 255.49 293.04 255.65 292.49 255.99 292.95 256.57 292.93 256.24 293.4 256.44 293.94"/><polygon class="cls-1" points="270.5 229.52 269.84 229.32 269.3 229.75 269.29 229.06 268.71 228.67 269.37 228.45 269.56 227.78 269.97 228.34 270.66 228.31 270.26 228.88 270.5 229.52"/><polygon class="cls-1" points="216.32 243.08 215.71 242.89 215.21 243.28 215.2 242.65 214.68 242.29 215.28 242.09 215.45 241.48 215.83 241.99 216.47 241.96 216.1 242.48 216.32 243.08"/><polygon class="cls-1" points="209.17 220.64 208.79 220.53 208.48 220.77 208.48 220.38 208.15 220.16 208.52 220.03 208.63 219.66 208.87 219.97 209.26 219.95 209.03 220.27 209.17 220.64"/><polygon class="cls-1" points="241.81 187.43 241.18 187.23 240.66 187.64 240.65 186.98 240.11 186.62 240.73 186.41 240.91 185.77 241.3 186.3 241.96 186.28 241.58 186.81 241.81 187.43"/><polygon class="cls-1" points="181.83 200.73 181.49 200.63 181.21 200.85 181.2 200.49 180.91 200.29 181.24 200.18 181.34 199.84 181.55 200.12 181.91 200.11 181.7 200.4 181.83 200.73"/><polygon class="cls-1" points="225.73 131.82 225.26 131.68 224.88 131.98 224.87 131.49 224.47 131.22 224.93 131.06 225.06 130.6 225.35 130.99 225.84 130.97 225.56 131.37 225.73 131.82"/><polygon class="cls-1" points="165.12 117.16 164.39 116.94 163.8 117.41 163.79 116.65 163.16 116.23 163.88 115.99 164.08 115.26 164.53 115.87 165.29 115.84 164.85 116.45 165.12 117.16"/><polygon class="cls-1" points="155.98 72.92 155.31 72.72 154.76 73.15 154.75 72.45 154.17 72.06 154.83 71.83 155.02 71.16 155.44 71.72 156.14 71.69 155.74 72.27 155.98 72.92"/><polygon class="cls-1" points="144.38 45.1 144.02 44.99 143.72 45.23 143.72 44.85 143.4 44.64 143.76 44.51 143.86 44.15 144.09 44.45 144.47 44.44 144.25 44.75 144.38 45.1"/><polygon class="cls-1" points="98.74 74.68 98.3 74.54 97.94 74.83 97.93 74.36 97.55 74.11 97.99 73.96 98.11 73.52 98.39 73.89 98.85 73.87 98.58 74.24 98.74 74.68"/><polygon class="cls-1" points="71.24 74.9 70.66 74.72 70.18 75.1 70.17 74.49 69.66 74.15 70.24 73.96 70.41 73.37 70.77 73.86 71.38 73.83 71.03 74.33 71.24 74.9"/><polygon class="cls-1" points="82.86 54.26 82.14 54.04 81.55 54.5 81.54 53.75 80.91 53.33 81.63 53.09 81.83 52.36 82.28 52.96 83.04 52.94 82.6 53.55 82.86 54.26"/><polygon class="cls-1" points="58.46 37.86 58.16 37.77 57.92 37.96 57.92 37.65 57.66 37.48 57.95 37.38 58.04 37.08 58.22 37.33 58.53 37.32 58.35 37.57 58.46 37.86"/><polygon class="cls-1" points="41.48 56.33 40.93 56.16 40.48 56.51 40.47 55.94 39.99 55.62 40.54 55.44 40.69 54.89 41.04 55.34 41.61 55.32 41.28 55.79 41.48 56.33"/><polygon class="cls-1" points="45.5 30.47 44.79 30.25 44.21 30.71 44.2 29.97 43.58 29.56 44.28 29.32 44.48 28.61 44.93 29.2 45.67 29.17 45.24 29.78 45.5 30.47"/><polygon class="cls-1" points="1.7 1.65 1.07 1.46 0.55 1.86 0.55 1.21 0 0.84 0.62 0.63 0.8 0 1.19 0.53 1.85 0.5 1.47 1.03 1.7 1.65"/></g></g></svg>