<svg xmlns="http://www.w3.org/2000/svg" viewBox="0 0 218.49 394.35"><defs><style>.cls-1{fill:#fbe827;}</style></defs><g id="Laag_2" data-name="Laag 2"><g id="Laag_1-2" data-name="Laag 1"><polygon class="cls-1" points="218.37 1.33 217.86 1.18 217.44 1.51 217.44 0.97 217 0.68 217.5 0.51 217.64 0 217.96 0.42 218.49 0.4 218.18 0.84 218.37 1.33"/><polygon class="cls-1" points="196.77 29 196.07 28.79 195.5 29.24 195.49 28.51 194.89 28.11 195.58 27.87 195.78 27.17 196.21 27.75 196.94 27.73 196.52 28.32 196.77 29"/><polygon class="cls-1" points="162.09 79.45 161.72 79.33 161.41 79.58 161.41 79.19 161.08 78.97 161.45 78.84 161.56 78.47 161.79 78.78 162.18 78.77 161.95 79.08 162.09 79.45"/><polygon class="cls-1" points="164.15 89.48 163.4 89.25 162.79 89.73 162.78 88.95 162.13 88.52 162.87 88.27 163.08 87.51 163.55 88.14 164.33 88.11 163.88 88.75 164.15 89.48"/><polygon class="cls-1" points="138.25 101.8 137.73 101.64 137.3 101.98 137.29 101.43 136.84 101.13 137.36 100.95 137.5 100.43 137.83 100.87 138.37 100.84 138.06 101.29 138.25 101.8"/><polygon class="cls-1" points="152.21 112.47 151.93 112.39 151.7 112.57 151.69 112.28 151.45 112.11 151.73 112.02 151.81 111.74 151.98 111.97 152.28 111.96 152.11 112.2 152.21 112.47"/><polygon class="cls-1" points="123.19 120.18 122.52 119.98 121.97 120.41 121.96 119.71 121.38 119.32 122.04 119.09 122.23 118.42 122.65 118.98 123.35 118.95 122.94 119.53 123.19 120.18"/><polygon class="cls-1" points="158.09 160.09 157.74 159.99 157.45 160.21 157.45 159.85 157.14 159.64 157.49 159.53 157.59 159.18 157.81 159.47 158.17 159.45 157.96 159.75 158.09 160.09"/><polygon class="cls-1" points="121.68 171.84 121.25 171.71 120.89 171.99 120.88 171.53 120.5 171.28 120.93 171.13 121.06 170.69 121.33 171.06 121.79 171.04 121.53 171.41 121.68 171.84"/><polygon class="cls-1" points="96.4 211.28 95.96 211.14 95.6 211.43 95.59 210.97 95.21 210.71 95.65 210.56 95.77 210.12 96.05 210.49 96.51 210.47 96.24 210.85 96.4 211.28"/><polygon class="cls-1" points="43.44 206.23 42.93 206.07 42.52 206.41 42.51 205.87 42.06 205.57 42.57 205.4 42.71 204.89 43.03 205.32 43.57 205.3 43.26 205.73 43.44 206.23"/><polygon class="cls-1" points="97.09 267.01 96.77 266.92 96.51 267.12 96.5 266.79 96.23 266.6 96.54 266.5 96.63 266.18 96.83 266.44 97.16 266.43 96.97 266.7 97.09 267.01"/><polygon class="cls-1" points="55.13 253.06 54.78 252.95 54.49 253.18 54.49 252.81 54.18 252.61 54.53 252.49 54.63 252.13 54.85 252.43 55.22 252.41 55.01 252.71 55.13 253.06"/><polygon class="cls-1" points="53.15 259.95 52.93 259.88 52.76 260.02 52.75 259.79 52.56 259.67 52.78 259.59 52.84 259.37 52.98 259.56 53.2 259.55 53.07 259.73 53.15 259.95"/><polygon class="cls-1" points="54.49 289.96 53.86 289.76 53.35 290.17 53.34 289.51 52.79 289.15 53.41 288.94 53.59 288.31 53.99 288.83 54.64 288.81 54.26 289.34 54.49 289.96"/><polygon class="cls-1" points="36.26 337.76 35.8 337.62 35.42 337.91 35.42 337.43 35.02 337.16 35.47 337.01 35.6 336.55 35.89 336.93 36.37 336.91 36.1 337.31 36.26 337.76"/><polygon class="cls-1" points="31.55 340.6 30.88 340.39 30.32 340.82 30.31 340.12 29.73 339.72 30.39 339.5 30.59 338.82 31.01 339.38 31.72 339.36 31.31 339.93 31.55 340.6"/><polygon class="cls-1" points="1.75 394.14 1.1 393.94 0.57 394.35 0.56 393.68 0 393.3 0.64 393.09 0.82 392.44 1.23 392.98 1.9 392.95 1.51 393.5 1.75 394.14"/></g></g></svg>